<svg id="Capa_4" data-name="Capa 4" xmlns="http://www.w3.org/2000/svg" viewBox="0 0 600 128"><defs><style>.cls-1{fill:none;}.cls-2{fill:#face1a;}.cls-3{fill:#1d4189;}.cls-4{fill:#c3192c;}.cls-5{fill:#110a4e;}.cls-6{fill:#4d96ff;}</style></defs><path class="cls-1" d="M38.66,47.93l2.84-.66-2.84.66Z"/><path class="cls-1" d="M113.17,95.32l-6.25.55h0Z"/><path class="cls-2" d="M122.8,44.54a34.33,34.33,0,0,0,1.66-4.32c.07-.4-.09-3.74-.37-3.95s-5.06-1.61-5.37-1.41a12.56,12.56,0,0,0-2.59,2c-3.11,3.48-6.56,8-9.61,11.48-3.69,4.26-9.45,10.44-14,13.81l-1.62,1c4-.28,16.77-1.11,20.76-1,3.46-5.65,5.14-6.82,8.64-12.46C121.09,48.4,122.11,45.94,122.8,44.54Z"/><path class="cls-2" d="M66.56,65.8c3.43.07,1.71-2.23,4.67-1.21,5.37-.18,14.15-.58,19.53-1.09a7.37,7.37,0,0,1-.84-2.89,21,21,0,0,1,1.57-8.88c1.69-4.51,3-8.53,4.92-13,2.77-6.45,5.73-12.83,8.51-19.28A18.67,18.67,0,0,0,106.05,15c.28-1.66-4.19-6.25-5.51-5.44a10.72,10.72,0,0,0-3.37,3.3c-2.34,3.66-4.54,7.42-6.65,11.23-3.84,7-7.25,14.16-11.83,20.68a51.48,51.48,0,0,1-4.86,5.68,7.14,7.14,0,0,1-2.6,1.62c-2,.82-1.59,2.49-2.32.42a14.89,14.89,0,0,1-.62-6.28c.34-3.85,1.23-7.58,1.86-11.39.88-5.28,2.09-10.63,3.08-15.9.51-2.73.81-2.52,1.24-5.26.11-.72,1.77-2.08,1.71-2.81A10,10,0,0,0,74.74,8.2c-.29-.13-3.26-2.66-3.51-2.44-.63.54-4,4-4.45,4.63-2.45,3.37-3.4,6.51-4.93,10.35a149.88,149.88,0,0,0-6.49,21.13c-.72,3-1.24,6.1-1.72,9.16-.41,2.63-.08,3.15-2.76,3.19-2.51,0-1.18.2-1.42-2.29a10.6,10.6,0,0,1,.4-3.43c2.16-9.14,3.22-17.1,6.91-25.77,2.59-6.09,5.51-12,9.81-17.11A19.76,19.76,0,0,1,72.8.73a79.69,79.69,0,0,0-8-.16c-10.86.62-7.35.73-15.75.9-3.65.08-12.5.89-19.85,1.15-3.74.06-26.08-.19-27.56,5.09L1.41,9.45c0,8.35,0,22.4,0,30.76.09,2,.18,4,.26,6,.53,5.46.42,10.46.95,15.92,0,1.14.28,4.15.58,6.27,33.23,0,16.21-2,49.44-2.12,1.2-.39,3.63-.77,4.89-1C60.13,64.75,63.87,65.75,66.56,65.8Z"/><path class="cls-3" d="M96.76,62.62c-2.89,0-6,.88-9.41.79-5.37.51-22.28,1-27.65,1.16,5,1.73,18.14,4.75,21.45,9.76a21.29,21.29,0,0,1,3.39,12.48c0,.34,1.38,1.32,1.65,1.57,1.89,1.78,2.86,2.9,4.68,4.75.89.9.41,1.39.45,2.47h9.13c1.43,0,2.85.19,4.28.29l2,0h.18c2.09-.18,3.3.06,5.38-.12,0,.21.87,0,.89.2.27,0,3.55,0,3.82,0,.91-1,1.59-.72,2.46-1.79a88.94,88.94,0,0,0,12.59-21.23c.56-1.31.35-3.68.75-5.06a24.31,24.31,0,0,0-.32-3.34c-.47.13-3.59-.27-4,0-1.82,1.35-4.3,2.84-6.11,4.21-3.56,2.69-6.31,3.76-9.94,6.35-1.82,1.31-2.23,2.87-4.44,3.27-2.82.52-3.21.43-2.61-2.52,1-4.69,3.25-8.8,5.69-12.81.18-.28.36-.56.53-.85C107.67,62.11,100.77,62.34,96.76,62.62Z"/><path class="cls-3" d="M82.8,90.29c-.4-.24-.65-.42-.93-.56a33,33,0,0,0-19.15-3.19,9.75,9.75,0,0,0-6.28,3.1C54.88,91.4,54.53,93.3,56,95a12.2,12.2,0,0,0,3.56,2.7H75.15A13.84,13.84,0,0,0,82.8,90.29Z"/><path class="cls-3" d="M55.07,95.75c-.33-.92.18-1.68,0-2.72-.64-3.73-.06-8.94,3.56-8.63,8.94.77,5.78-2.27,8.45-1.85,4.52.72,6.82.56,12.14,2.47.21.07.52-5.22.9-5.35-.77-1.2-1.41-2.38-2.23-3.43a17,17,0,0,0-11.33-6.58c-9.27-1.38-17.6.41-23.84,8.07A22.09,22.09,0,0,0,38.31,88a23.45,23.45,0,0,0-.09,7.83h.53C42.76,95.87,51.06,95.75,55.07,95.75Z"/><path class="cls-3" d="M37.8,77.31c3.13-4.58,10.05-9,15.72-11.49.58-.25,2.78-.86,2.15-.85-29,.28-20.53,2.88-51.93,2.9a.59.59,0,0,0-.59.57c-.21,7.48-.58,15-.52,22.44,0,4,.2,8-.06,9.31a213.05,213.05,0,0,1,30.51-4.06.59.59,0,0,0,.56-.63C33.08,88.66,33.75,83.23,37.8,77.31Z"/><path class="cls-4" d="M33.69,96.11c0-.45,0,.44,0,0-10.85-.24-26.89,1.72-30.52,2a.61.61,0,0,0-.54.57c-.2,4-.08,8.4-.3,12.16l.06,7.79a17.16,17.16,0,0,0,1.86,6.67c1,1,1.88,2.29,4.39,2.12h.93c12.5-.09,69-1.86,69.52-1.87-8-1.24-26.63-3.86-33.28-9C39,111.24,34.72,104.69,33.69,96.11Z"/><path class="cls-4" d="M76.63,97.42c.44-.7.52-1.8,1.23-2.09-3.26,0-17.11.42-20.38.42.18.1,4.12.72,4.23.89C64,100.31,74.3,101.16,76.63,97.42Z"/><path class="cls-4" d="M106.74,95.87c-.67,0-1.34,0-2,0-1.43-.1-2.85-.29-4.28-.29H92.66c0,1.24-.34.32-1.34,1.21-2.07,1.85-1.31,1.91-3.18-.2-.66-.74-3.38-2.26-4.11-3.07a26.19,26.19,0,0,1-6.17,6.17c-3,2.19-5.26,2.66-8.93,3.08a12.18,12.18,0,0,1-7.81-1.13c-3.94-1.68-5.3-2.25-6.68-6.06-3.57,0-9.89-.38-13.44,0s-7.78,1.42-3.82,1c.64,4,4,10.87,6.68,14.26,4.21,5.36,10.22,8.3,16.75,9.74,4.38,1,11.12-1.1,15.57-1.41,7.09-.5,16.92-3.71,23.16-7.16C106.47,108.12,111.66,102,117,96,117,95.94,110.24,95.62,106.74,95.87Z"/><path class="cls-4" d="M112.3,95.75c0,.21.87,0,.89.2l.79,0h0l-.79,0C113.17,95.75,112.29,96,112.3,95.75Z"/><path class="cls-4" d="M106.74,95.87l-2,0c-1.43-.1-2.85-.29-4.28-.29,1.43,0,2.85.19,4.28.29Z"/><path class="cls-5" d="M73.59,125.77a56,56,0,0,1-30.23-9.16c-6.74-4.56-10.19-11.68-11.18-19.89,0-.27,0-.53-.07-.79l0-.49c-.67-7.46.76-13.67,4.39-19a26,26,0,0,1,13.88-10.2,30.83,30.83,0,0,1,3.51-1A35.35,35.35,0,0,1,61,64.55h.62a30.08,30.08,0,0,1,9.12,1.52,22.9,22.9,0,0,1,11.83,9.31,17.32,17.32,0,0,1,3.13,10.75,3.09,3.09,0,0,0,1,2.27c.72.68,1.47,1.35,2.21,2,1.17,1,2.37,2.12,3.46,3.23a3.05,3.05,0,0,1,.92,2,2.65,2.65,0,0,1-.91,2.12,3.16,3.16,0,0,1-2.12.87,3.25,3.25,0,0,1-2.42-1.19l-1.41-1.55-.68-.74a1.58,1.58,0,0,0-1.15-.51h-.16a1.6,1.6,0,0,0-1.19.75,16,16,0,0,1-4.35,4.85,19,19,0,0,1-9.38,3.31,19.46,19.46,0,0,1-2.14.12,17.61,17.61,0,0,1-6.93-1.42,12.29,12.29,0,0,1-7.25-7.22,13.81,13.81,0,0,1-.64-2.34,8.61,8.61,0,0,1,2.28-7.33c1.71-2,4.07-3.24,7.66-3.91A26,26,0,0,1,67.28,81c3,0,6.66.16,9,2.25,1.24,1.1,4.23.3,2.89-3-2.05-5-8.63-9-13.17-9.62a33.65,33.65,0,0,0-5.08-.4,21.65,21.65,0,0,0-17.61,8.15,21.24,21.24,0,0,0-4.26,9.9,22.76,22.76,0,0,0-.08,7.5,25.52,25.52,0,0,0,5.43,11.8c4,5.08,9.69,8.38,17.41,10.08A47.26,47.26,0,0,0,72,118.81c1.17,0,2.36,0,3.54-.12a49.64,49.64,0,0,0,20.65-6.23,71.52,71.52,0,0,0,19-15.49c.93-1,1.85-2.11,2.73-3.21A90,90,0,0,0,131,72.36a36.23,36.23,0,0,0,1.45-4.25c.18-.64.68-2.36-.67-3.22a2.79,2.79,0,0,0-3.22.42c-1,.76-2,1.55-3.06,2.34-.78.61-1.55,1.22-2.34,1.81l-2.14,1.62c-2.78,2.12-5.67,4.31-8.55,6.38a13.53,13.53,0,0,1-5.56,2.11,1.72,1.72,0,0,1-.39,0,2.42,2.42,0,0,1-1.85-1,3,3,0,0,1-.63-2.48c.93-4.56,3.23-8.58,5.5-12.31l.53-.85c2-3.27,4.05-6.52,6.1-9.77,1.48-2.36,3-4.72,4.44-7.08.85-1.38,1.56-2.83,2.25-4.23.42-.85,2-3.55-.13-5.21s-5.14,1.31-6,2.23c-2.52,2.83-5,5.7-7.48,8.56l-2.58,3C103.44,54.32,100,58.26,96,61.27c-1.81,1.32-3.29,2.16-5,2.23h-.18a2.34,2.34,0,0,1-2.1-1A3.28,3.28,0,0,1,88.19,61a19.3,19.3,0,0,1,1.47-8.22C91.44,48,93.2,43.61,95,39.37c1.41-3.26,2.86-6.5,4.31-9.75s2.83-6.34,4.21-9.53a20.15,20.15,0,0,0,1.23-4.83,3.09,3.09,0,0,0-.57-2.63,2.49,2.49,0,0,0-2-.88,4,4,0,0,0-2,.62,12.53,12.53,0,0,0-3.87,3.8c-2.23,3.5-4.42,7.2-6.7,11.32-1,1.88-2,3.77-3,5.66A138.7,138.7,0,0,1,77.92,48c-1.34,1.92-5.79,6.85-7.63,6.95-.88,0-1.33-.76-1.55-1.4A13.18,13.18,0,0,1,68.2,48c.37-4.27.74-7.83,1.33-11.38.55-3.32,1.23-6.69,1.88-9.94.38-1.94.77-3.89,1.14-5.83.56-3,1-6,1.39-8.27.14-.9,1-4-1.24-5.09s-4.26,2.05-4.78,2.77a50.77,50.77,0,0,0-5.77,11.35,149.88,149.88,0,0,0-6.56,21.35c-.75,3.17-1.28,6.34-1.74,9.28a3.77,3.77,0,0,1-3.67,3.31,3.62,3.62,0,0,1-3.58-3A9.55,9.55,0,0,1,47,49.6,166.46,166.46,0,0,1,55.23,23c2.27-5.35,5.19-11.52,9.56-16.72a17.83,17.83,0,0,1,5.53-4.62l.37-.19c.17-.09.33-.18.5-.25A7.39,7.39,0,0,1,74,.61,5.79,5.79,0,0,1,75.3.76a2.74,2.74,0,0,1,.84.37,3.59,3.59,0,0,1,1.12,1.11,9.52,9.52,0,0,1,1.39,4.47c.46,5-.54,10-1.91,16.55C76.1,26.34,72.86,38.92,75,39.72c3,1.16,10.54-16.65,12.65-20.26A39.85,39.85,0,0,1,96.76,8.23a11.36,11.36,0,0,1,5.09-2.68,12.15,12.15,0,0,1,2.08-.2,7.23,7.23,0,0,1,3.8,1c1.77,1.06,2.62,2.73,2.75,5.41.26,5.56-1.51,10.86-3.19,15.39-2.12,5.71-12.05,21.23-9.35,23,2.51,1.61,10.8-10.15,13.28-12.77a27.8,27.8,0,0,1,8.3-6.22A10,10,0,0,1,123.69,30a6.46,6.46,0,0,1,2.48.5,4.67,4.67,0,0,1,3,4.46c.18,4.34-1.43,8.15-3.39,12.34a133,133,0,0,1-8.59,14.93s-4.48,6.38-3.5,7.52,6.89-4.33,7.8-5.15a40.87,40.87,0,0,1,7.21-5.46,18.11,18.11,0,0,1,4.48-1.77,6.14,6.14,0,0,1,.86-.12h.19a3.81,3.81,0,0,1,3.74,3.45,19.7,19.7,0,0,1-.41,7.8,71.67,71.67,0,0,1-4.81,13.85,123.8,123.8,0,0,1-9,14.93c-2,2.63-4.2,5.26-6.56,7.8a66.07,66.07,0,0,1-26,17.65c-.67.24-1.35.46-2,.68a46.07,46.07,0,0,1-10,2.14l-3,.26Zm-5.77-39a23.49,23.49,0,0,0-3,.2,7.62,7.62,0,0,0-4.92,2.46c-1.59,1.78-1.69,3.83-.27,5.46A9,9,0,0,0,62.33,97c.29.17.45.27.62.35a10.61,10.61,0,0,0,4.32.84,19.75,19.75,0,0,0,3.56-.37,13.79,13.79,0,0,0,2.6-.75,10.35,10.35,0,0,0,5.66-5.49,1.58,1.58,0,0,0-.62-2l-.2-.13a4.6,4.6,0,0,0-.51-.29A22.33,22.33,0,0,0,67.82,86.81Z"/><path class="cls-5" d="M170,56.11a98.72,98.72,0,0,0-.76,19.59c.21,2.9.87,13.88,2.83,16.16s4.9-.73,4.14-8.6a6,6,0,0,1,2.29-4.46,6.14,6.14,0,0,1,4.79-1.86,4,4,0,0,1,2.72.83,5.32,5.32,0,0,1,2.07,1.55,3.19,3.19,0,0,1,1.2,2,5.85,5.85,0,0,1,.33,2.69,29.16,29.16,0,0,1,0,3.11,43.15,43.15,0,0,1-1.42,7.67,29.05,29.05,0,0,1-3.05,6.73c-.76,1-1.63,2.08-2.5,3.11a8.2,8.2,0,0,1-1.2.73,7.08,7.08,0,0,1-2.18,1.76,13.1,13.1,0,0,1-9.7.41,12.26,12.26,0,0,1-3.7-1.86,16.94,16.94,0,0,1-3.16-3A12.21,12.21,0,0,1,160.55,99,17.31,17.31,0,0,1,159,94.66a47.65,47.65,0,0,1-2.4-11.81,94.69,94.69,0,0,1-.11-26.63,33.35,33.35,0,0,1,1-6.32A33.81,33.81,0,0,1,159,42.54a35.22,35.22,0,0,1,1.85-4.35c.43-.62,1-1.55,1.52-2.18a39.92,39.92,0,0,1,2.94-2.9,10.6,10.6,0,0,1,3.49-2.38,16.25,16.25,0,0,1,3.81-1.14,14.33,14.33,0,0,1,3.05-.1c.77.1,1.64.2,2.62.41a11.46,11.46,0,0,1,3.7,1.56,13.73,13.73,0,0,1,2.29,1.65c.87.94,1.64,1.45,2.4,2.39A20.9,20.9,0,0,1,189,38.81a19.69,19.69,0,0,1,2.39,4.46,6.65,6.65,0,0,1,.66,3.31,14.6,14.6,0,0,1-.44,1.87,6.76,6.76,0,0,1-3.27,3.83,4.88,4.88,0,0,1-2.5.62,4.47,4.47,0,0,1-2.62-.31A3.28,3.28,0,0,1,181,51.35a3.89,3.89,0,0,1-1.74-2c-3.49-7.87-7.41-7.36-8.39,1.76C170.57,52.8,170.36,54.46,170,56.11Z"/><path class="cls-5" d="M232.78,74.45c.11,4.35.33,8.81.22,13.37a31.66,31.66,0,0,1-.22,3.21,28,28,0,0,1-.87,4.45,19.66,19.66,0,0,1-1.63,4.15,15.51,15.51,0,0,1-2.4,3.42c-.54.62-1.2,1.14-1.85,1.76a17.45,17.45,0,0,1-3.38,2.28,18.09,18.09,0,0,1-4,1.24,13.25,13.25,0,0,1-2.94.31,13,13,0,0,1-2.83-.31,14.1,14.1,0,0,1-3.93-1.35,12.08,12.08,0,0,1-3.48-2.17c-.77-.62-1.31-1.14-2-1.76A17.9,17.9,0,0,1,201,99.73a17.12,17.12,0,0,1-1.74-3.83,18.11,18.11,0,0,1-1.09-2.9,35.71,35.71,0,0,1-.87-7.67c-.33-4.56-.22-8.81-.22-13.36,0-9.22.22-25.91.22-35a6.8,6.8,0,0,1,1.85-4.56,7.62,7.62,0,0,1,4.68-1.76,5.86,5.86,0,0,1,2.51.62,5,5,0,0,1,2.07,1.14,8.19,8.19,0,0,1,2,4.56v9.84c.11,6.11-.22,19.48-.22,25.28v8.81a38.33,38.33,0,0,0,.44,7.14c.54,9.85,9.48,10.57,9.48-.41V81.29c-.11-6.42-.66-12.64-1.09-19s-.77-19.79-1.31-26.21a5.69,5.69,0,0,1,1.85-4.35A7.07,7.07,0,0,1,224.18,30a5.47,5.47,0,0,1,2.5.51,6,6,0,0,1,2.07,1.25,5.45,5.45,0,0,1,1.42,2.07,4,4,0,0,1,.43,2.28c.11,1.24.22,2.28.44,3.52C231.91,48.65,232.35,65.23,232.78,74.45Z"/><path class="cls-5" d="M262.2,78.39c-.54.31-1.09.62-1.53.83,4.47,4.87,11,13.16,14.82,18.44a5.64,5.64,0,0,1,1.42,2.9c.11.62,0,1.14.11,1.76a7,7,0,0,1-2.51,4.15,6.46,6.46,0,0,1-2.07,1,7.92,7.92,0,0,1-2.72.31,7.06,7.06,0,0,1-2.29-.83,3.48,3.48,0,0,1-2-1.45c-1.53-1.86-2.72-3.62-4.14-5.38a137,137,0,0,0-8.72-10.78c.11,3,.11,9.64.22,12.54a6.44,6.44,0,0,1-1.85,4.56c-2.51,2.38-6.65,2.17-9.37,0a7.28,7.28,0,0,1-1.85-4.56c-.22-4.66-.33-13-.33-17.72-.22-8.29-.44-16.57-.44-24.86s-.21-16.79-.21-25.08a6.14,6.14,0,0,1,1.85-4.35A7.17,7.17,0,0,1,245.31,28a6.32,6.32,0,0,1,2,.31,29.87,29.87,0,0,1,6.76-.11,25.76,25.76,0,0,1,9.48,2.49,23.12,23.12,0,0,1,4.25,2.69,13.14,13.14,0,0,1,2.39,2.39A20.36,20.36,0,0,1,273,39.54a24.4,24.4,0,0,1,2,4.56c.22,1,.54,2.17.76,3.1a38.12,38.12,0,0,1,.44,4.87c0,1.25-.11,2.39-.11,3.53a49.85,49.85,0,0,1-1,5.18A18,18,0,0,1,274,64.2a29.44,29.44,0,0,1-2.18,4.55,29,29,0,0,1-3.05,4,20.72,20.72,0,0,1-2.62,2.59C265,76.42,263.51,77.35,262.2,78.39ZM259,42.54a20.71,20.71,0,0,1-2.18-1.14,13.38,13.38,0,0,0-3.59-.83h-1.42c0,2.59,0,5.08.11,7.77,0,7,.11,14,.22,20.83.32-.1.65-.1,1.09-.21a14.11,14.11,0,0,0,3-1.86,13.63,13.63,0,0,0,2.83-2.7,18.94,18.94,0,0,0,2.29-3.62A33,33,0,0,0,263,55.39a28.06,28.06,0,0,0,.11-5.28c-.32-1.25-.65-2.39-1-3.73a19.58,19.58,0,0,0-1.52-2.18A21,21,0,0,0,259,42.54Z"/><path class="cls-5" d="M294.67,72.8c.22,7.87.43,21,.54,29.11a5.83,5.83,0,0,1-2,4.25,6.08,6.08,0,0,1-4.57,1.86,6.74,6.74,0,0,1-2.51-.52,5,5,0,0,1-2.07-1.34,5.83,5.83,0,0,1-2-4.25c-.11-4.66-.22-14.2-.22-18.65-.22-7.87-.43-15.85-.54-23.83s-.44-15.75-.44-23.83a5.94,5.94,0,0,1,1.74-4.35,8.18,8.18,0,0,1,4.69-1.66,5.25,5.25,0,0,1,2.5.42,4.43,4.43,0,0,1,2,1.24,6,6,0,0,1,2,4.35c.21,4.56.21,9,.32,13.47C294.34,56.94,294.56,64.82,294.67,72.8Z"/><path class="cls-5" d="M339.12,63.68a97,97,0,0,1-.44,17c-.32,3.31-.76,6.42-1.3,10-.66,4.55-2.18,9.22-5.67,12.84a12.62,12.62,0,0,1-2.72,2c-.33.42-1,.62-1.31.93a23.6,23.6,0,0,1-2.94,1.25,17.1,17.1,0,0,1-3.27.41,20.87,20.87,0,0,1-3.38-.41,16.17,16.17,0,0,1-2.83-1,33.17,33.17,0,0,1-3.81-2.8,20.66,20.66,0,0,1-3.38-3.62c-.55-1.14-1.2-2-1.53-2.9a25.1,25.1,0,0,1-2-5.39,30.19,30.19,0,0,1-1.85-7.46c-.54-3.32-.87-6.84-1.09-10.05a142.56,142.56,0,0,1,.22-16.79c3.16-34.5,31.27-38.74,36.5-2C338.79,58.19,338.9,61.09,339.12,63.68Zm-14.82-11c-.65-11.19-7.19-11.71-8.06.62-.65,9.11-1.31,17.82-.11,27.35,1.31,9,6,19.48,8.17,4.25A42.53,42.53,0,0,0,325,78.6,137.6,137.6,0,0,0,324.3,52.7Z"/><path class="cls-5" d="M375.62,84.92a31.1,31.1,0,0,1-.55,8.39,16,16,0,0,1-.76,3.11,30.13,30.13,0,0,1-2.07,4.14c-1.09,1.25-1.74,2.49-2.94,3.32-.87.62-1.64,1.34-2.4,1.86a12.6,12.6,0,0,1-2.83,1.14c-1.2.73-2.83.73-4.36.83a30,30,0,0,1-3-.1,4.14,4.14,0,0,1-1.2-.42,14.55,14.55,0,0,1-3.81-2,11.21,11.21,0,0,1-3.16-2.79A13.16,13.16,0,0,1,346,98.8c-.65-1.35-1.19-2.69-1.74-4.14a7.41,7.41,0,0,1,.65-5.08,7.09,7.09,0,0,1,3.93-3.11,7.45,7.45,0,0,1,2.61-.21,4.35,4.35,0,0,1,2.4.94,7.16,7.16,0,0,1,3.05,3.93c0,3.22,4.79,4.77,5.66-1.55a16.06,16.06,0,0,0-.11-5.6,33,33,0,0,0-6.1-14.6c-2.28-3.11-4.9-5.91-7-9.22a22.6,22.6,0,0,1-2.51-5.7,20.62,20.62,0,0,1-1.3-6.22,26.39,26.39,0,0,1,.43-4,6.91,6.91,0,0,1,.44-2.07,23.25,23.25,0,0,1,1.52-3.42,17.3,17.3,0,0,1,2.07-2.8,9,9,0,0,1,1.31-1.45,19.49,19.49,0,0,1,2.83-2.07,12.71,12.71,0,0,1,3.27-1.45,5.76,5.76,0,0,1,2.94-.62,14.08,14.08,0,0,1,2.95-.31c1.3.1,2.5.31,3.59.41,1.2.52,2.4.93,3.71,1.45A9.5,9.5,0,0,1,372.24,33a5.27,5.27,0,0,1,2.4,2.38c.21.42.43,1,.65,1.56a6.39,6.39,0,0,1-.65,5.07A5.07,5.07,0,0,1,373,44a7.75,7.75,0,0,1-2.29,1.25,5.57,5.57,0,0,1-4.9-.73c-5-2.18-8.93.52-6.43,6.53a49.42,49.42,0,0,0,2.95,4.66c1.74,2.18,3.59,4.46,5.22,6.63A41.3,41.3,0,0,1,371.48,69a49.88,49.88,0,0,1,2.83,7.67A42.75,42.75,0,0,1,375.62,84.92Z"/><path class="cls-5" d="M414.4,33.11a6.18,6.18,0,0,1,.66,4.77,4.49,4.49,0,0,1-1.2,2.07,6.44,6.44,0,0,1-1.75,1.66,5.79,5.79,0,0,1-2.5.72,4.11,4.11,0,0,1-2.51-.1c-2.39-.62-4.68-1.14-7.08-1.55-5.77-.83-6.21-2.59-6.21,3.62-.11,2-.11,3.94-.22,5.91-.11,4-.21,8.08-.11,12.12,2.29,0,4.47,0,7,.21a6.8,6.8,0,0,1,3.16.83,8.57,8.57,0,0,0,1.3.93,6.79,6.79,0,0,1,2,4.45,5.89,5.89,0,0,1-.55,2.39,4.78,4.78,0,0,1-1.42,2.07,3.91,3.91,0,0,1-2.07,1.24,6.64,6.64,0,0,1-2.39.52l-6.65-.31c.11,2.69.33,7.67.55,10.36.21,3.11.43,6.32.87,9.43.43,2.69,5.34,1.35,7.19.83a7.2,7.2,0,0,1,4.9.41,8.3,8.3,0,0,1,3.16,3.84,6.27,6.27,0,0,1,0,2.48,3.62,3.62,0,0,1-.76,2.28,7.2,7.2,0,0,1-3.92,2.9c-.66.21-1.2.31-1.86.52-1.85.41-3.7.62-5.55.93a16.87,16.87,0,0,1-5.56-.41,18.53,18.53,0,0,1-3.16-1,22.89,22.89,0,0,1-2.83-1.86,22.45,22.45,0,0,1-2.07-2.39,10.2,10.2,0,0,1-.65-1A15.18,15.18,0,0,1,383,99.53a15.59,15.59,0,0,1-.44-2.18c-.11-1.24-.44-2.59-.65-3.94-.11-1.76-.22-3.52-.44-5.39-.33-3.52-.54-9.32-.65-13-.44-7.14-.55-14.29-.44-21.55.11-3.62.22-7.25.44-10.77a37.1,37.1,0,0,1,.65-6.11,7.92,7.92,0,0,1,.44-1.87c.43-.72.65-1.66,1.09-2.28.65-.72,1.09-1.34,1.63-1.86.11-.11.22-.31.33-.42.65-.31,1.09-.83,1.74-1.14a7,7,0,0,1,2.4-1,10.43,10.43,0,0,1,3.81-.52,9.46,9.46,0,0,1,2.4.1,32.75,32.75,0,0,1,4.35.52,80.12,80.12,0,0,1,10.79,2.07A6.14,6.14,0,0,1,414.4,33.11Z"/><path class="cls-5" d="M458.31,101.6a6.25,6.25,0,0,1-2,4.35,6.92,6.92,0,0,1-4.69,2.07,8.7,8.7,0,0,1-2.5-.52A6.35,6.35,0,0,1,447,106a3.62,3.62,0,0,1-1.31-2,6.23,6.23,0,0,1-.54-2.38c-.22-4.25-.44-7.15-.77-11.4,0-1.24,0-2.49-.1-3.94-4,0-8.18-.1-12.1-.31-.22,5.29-.22,10.57-.22,15.75a6.76,6.76,0,0,1-2,4.66,7.53,7.53,0,0,1-4.68,1.87,8.72,8.72,0,0,1-4.69-1.87,6.25,6.25,0,0,1-1.85-4.66V98.18c.11-9.84.22-19.89,1-29.63.55-5.49,1.2-11,2.07-16.27.76-4.87,1.74-10.05,4-14.5a16.81,16.81,0,0,1,2.62-3.73,11.41,11.41,0,0,1,3.48-2.9,12.8,12.8,0,0,1,4-1.87,11.58,11.58,0,0,1,1.41-.41,21.27,21.27,0,0,1,2.83-.21,14.21,14.21,0,0,1,3,.41A7.12,7.12,0,0,1,446,30.21a12.29,12.29,0,0,1,2.5,1.56,8.78,8.78,0,0,1,1.09.93,29.41,29.41,0,0,1,2.51,3.94A18.92,18.92,0,0,1,453.84,41a39.51,39.51,0,0,1,1.42,8.7c.33,2.28.33,4.77.43,7.15.44,5.18.66,10.15.88,15.23C457.22,82.22,457.76,91.34,458.31,101.6ZM443.38,73.42c-.11-1.56-.11-3.32-.21-4.77-.22-3.73-.44-7.36-.66-11-.22-3.21-.22-6.42-.65-9.74-.87-7.15-3.49-8.5-5.67-.31-.32,1.24-.54,2.69-.87,3.94q-.81,4-1.31,8.08c-.54,2.9-.76,5.8-1.09,8.6,0,1.55-.21,3.21-.32,4.87C436.3,73.31,439.79,73.42,443.38,73.42Z"/><path class="cls-6" d="M480.87,106.43A8.82,8.82,0,0,1,468.37,94a8.84,8.84,0,0,1,12.5,0,8.76,8.76,0,0,1,0,12.44Z"/><path class="cls-5" d="M520.94,98.9a3.08,3.08,0,0,1,.21,2.39,5.06,5.06,0,0,1-.76,2.28,4.86,4.86,0,0,1-1.74,1.86,5.43,5.43,0,0,1-2.18,1.14,68.8,68.8,0,0,1-10.24,1.24h-2.07a12.59,12.59,0,0,1-3.49-.62,7.73,7.73,0,0,1-2.07-.93,5.89,5.89,0,0,1-1.85-1.24,9.54,9.54,0,0,1-1.85-2.28,7.26,7.26,0,0,1-1.09-2.49,1.72,1.72,0,0,1-.44-1.24,13,13,0,0,1-.54-4.15v-7c.11-5.08.11-14.61.33-19.79.21-10.15.54-22.07,1-32.33a6.5,6.5,0,0,1,1-3.21,15.36,15.36,0,0,0,1-1.24,7.05,7.05,0,0,1,4.68-1.87,4.54,4.54,0,0,1,2.51.63,11.11,11.11,0,0,1,2.07,1.24,5.58,5.58,0,0,1,1.3,2,5.11,5.11,0,0,1,.55,2.48c-.22,4-.33,8.09-.44,12.33-.32,7.26-.43,16.37-.76,23.73-.11,3.63,0,11.6-.11,15.23v8.39a3.68,3.68,0,0,1,1.09-.1,22.69,22.69,0,0,0,2.62-.11l3.37-.62a7.07,7.07,0,0,1,5,.62A5.8,5.8,0,0,1,520.94,98.9Z"/><path class="cls-5" d="M557.44,84.92a31.51,31.51,0,0,1-.55,8.39,16,16,0,0,1-.76,3.11,31.31,31.31,0,0,1-2.07,4.14c-1.09,1.25-1.75,2.49-2.94,3.32-.87.62-1.64,1.34-2.4,1.86a12.6,12.6,0,0,1-2.83,1.14c-1.2.73-2.84.73-4.36.83a30,30,0,0,1-3-.1,4.14,4.14,0,0,1-1.2-.42,14.55,14.55,0,0,1-3.81-2,11.21,11.21,0,0,1-3.16-2.79,13.16,13.16,0,0,1-2.51-3.63c-.65-1.35-1.2-2.69-1.74-4.14a7.41,7.41,0,0,1,.65-5.08,7.07,7.07,0,0,1,3.92-3.11,7.51,7.51,0,0,1,2.62-.21,4.35,4.35,0,0,1,2.4.94,7.16,7.16,0,0,1,3.05,3.93c0,3.22,4.79,4.77,5.66-1.55a16.06,16.06,0,0,0-.11-5.6,33,33,0,0,0-6.1-14.6c-2.29-3.11-4.9-5.91-7-9.22a22.6,22.6,0,0,1-2.51-5.7,20.32,20.32,0,0,1-1.3-6.22,25.19,25.19,0,0,1,.43-4,6.91,6.91,0,0,1,.44-2.07,23.25,23.25,0,0,1,1.52-3.42,17.3,17.3,0,0,1,2.07-2.8,8.59,8.59,0,0,1,1.31-1.45A19.49,19.49,0,0,1,536,32.39a12.71,12.71,0,0,1,3.27-1.45,5.76,5.76,0,0,1,2.94-.62,14,14,0,0,1,2.94-.31c1.31.1,2.51.31,3.6.41,1.2.52,2.4.93,3.7,1.45A9.2,9.2,0,0,1,554.06,33a5.27,5.27,0,0,1,2.4,2.38c.21.42.43,1,.65,1.56a6.43,6.43,0,0,1-.65,5.07,5.16,5.16,0,0,1-1.64,2,7.88,7.88,0,0,1-2.29,1.25,5.57,5.57,0,0,1-4.9-.73c-5-2.18-8.93.52-6.43,6.53a49.37,49.37,0,0,0,2.94,4.66c1.75,2.18,3.6,4.46,5.23,6.63A42,42,0,0,1,553.3,69a52.05,52.05,0,0,1,2.83,7.67A42.75,42.75,0,0,1,557.44,84.92Z"/><path class="cls-5" d="M576.61,56.11a98.72,98.72,0,0,0-.76,19.59c.22,2.9.87,13.88,2.83,16.16s4.9-.73,4.14-8.6a6,6,0,0,1,2.29-4.46,6.15,6.15,0,0,1,4.79-1.86,4.06,4.06,0,0,1,2.73.83,5.47,5.47,0,0,1,2.07,1.55,3.18,3.18,0,0,1,1.19,2,5.85,5.85,0,0,1,.33,2.69,29.16,29.16,0,0,1,0,3.11,43.15,43.15,0,0,1-1.42,7.67,29.05,29.05,0,0,1-3,6.73c-.76,1-1.63,2.08-2.5,3.11a7.71,7.71,0,0,1-1.2.73,7,7,0,0,1-2.18,1.76,13.09,13.09,0,0,1-9.7.41,12.26,12.26,0,0,1-3.7-1.86,16.94,16.94,0,0,1-3.16-3A12.21,12.21,0,0,1,567.13,99a17.31,17.31,0,0,1-1.52-4.35,47.65,47.65,0,0,1-2.4-11.81,94.69,94.69,0,0,1-.11-26.63,33.35,33.35,0,0,1,1-6.32,33.81,33.81,0,0,1,1.53-7.36,36.82,36.82,0,0,1,1.85-4.35c.43-.62,1-1.55,1.52-2.18,1-.93,2-2.17,2.95-2.9a10.46,10.46,0,0,1,3.48-2.38,16.19,16.19,0,0,1,3.82-1.14,14.3,14.3,0,0,1,3-.1c.76.1,1.63.2,2.61.41a11.37,11.37,0,0,1,3.7,1.56,13.33,13.33,0,0,1,2.29,1.65c.87.94,1.64,1.45,2.4,2.39a20.9,20.9,0,0,1,2.29,3.31A19.69,19.69,0,0,1,598,43.27a6.65,6.65,0,0,1,.66,3.31,14.6,14.6,0,0,1-.44,1.87,6.72,6.72,0,0,1-3.27,3.83,4.88,4.88,0,0,1-2.5.62,4.49,4.49,0,0,1-2.62-.31,3.28,3.28,0,0,1-2.18-1.24,3.89,3.89,0,0,1-1.74-2c-3.49-7.87-7.41-7.36-8.39,1.76C577.16,52.8,576.94,54.46,576.61,56.11Z"/></svg>