<?xml version="1.0" encoding="utf-8"?>
<!-- Generator: Adobe Illustrator 25.4.1, SVG Export Plug-In . SVG Version: 6.00 Build 0)  -->
<svg version="1.1" id="Capa_4" xmlns="http://www.w3.org/2000/svg" xmlns:xlink="http://www.w3.org/1999/xlink" x="0px" y="0px"
	 viewBox="0 0 604.7 130.1" style="enable-background:new 0 0 604.7 130.1;" xml:space="preserve">
<style type="text/css">
	.st0{fill:none;}
	.st1{fill:#FACE1A;}
	.st2{fill:#ECC319;}
	.st3{fill:#1D4189;}
	.st4{fill:#C3192C;}
	.st5{fill:#110A4E;}
	.st6{fill:#FFFFFF;}
	.st7{fill:#4D96FF;}
</style>
<g>
	<g>
		<path class="st0" d="M39.9,49c1-0.2,1.9-0.4,2.8-0.7C41.8,48.5,40.8,48.8,39.9,49L39.9,49z"/>
		<path class="st0" d="M114.4,96.4c-2.1,0.2-4.2,0.4-6.2,0.5c-0.1,0-0.1,0-0.2,0c0.1,0,0.1,0,0.2,0
			C110.2,96.7,112.3,96.6,114.4,96.4z"/>
		<path class="st1" d="M124,45.6c0.3-0.6,1.6-3.6,1.7-4.3c0.1-0.4-0.1-3.7-0.4-4c-0.3-0.2-5.1-1.6-5.4-1.4c-0.9,0.6-1.9,1.2-2.6,2
			c-3.1,3.5-6.6,8-9.6,11.5c-3.7,4.3-9.4,10.4-14,13.8c0,0-1.6,1-1.6,1c4-0.3,16.8-1.1,20.8-1c3.5-5.7,5.1-6.8,8.6-12.5
			C122.3,49.5,123.3,47,124,45.6z"/>
		<path class="st1" d="M67.8,66.9c3.4,0.1,1.7-2.2,4.7-1.2c5.4-0.2,14.2-0.6,19.5-1.1c-0.4-0.6-0.8-2-0.8-2.9
			c-0.2-3.1,0.5-6,1.6-8.9c1.7-4.5,3-8.5,4.9-13c2.8-6.5,5.7-12.8,8.5-19.3c0.6-1.4,0.9-3,1.1-4.5c0.3-1.7-4.2-6.3-5.5-5.4
			c-1.3,0.8-2.5,2-3.4,3.3c-2.3,3.7-4.5,7.4-6.7,11.2c-3.8,7-7.3,14.2-11.8,20.7c-1.4,2-3.1,3.9-4.9,5.7c-0.7,0.7-1.7,1.2-2.6,1.6
			c-2,0.8-1.6,2.5-2.3,0.4c-0.7-2-0.8-4.2-0.6-6.3c0.3-3.8,1.2-7.6,1.9-11.4c0.9-5.3,2.1-10.6,3.1-15.9c0.5-2.7,0.8-2.5,1.2-5.3
			c0.1-0.7,1.8-2.1,1.7-2.8c0-0.4-1.2-2.6-1.4-2.7c-0.3-0.1-3.3-2.7-3.5-2.4c-0.6,0.5-4,4-4.5,4.6c-2.4,3.4-3.4,6.5-4.9,10.3
			c-2.7,6.9-4.8,14-6.5,21.1c-0.7,3-1.2,6.1-1.7,9.2c-0.4,2.6-0.1,3.1-2.8,3.2c-2.5,0-1.2,0.2-1.4-2.3c-0.1-1.1,0.1-2.3,0.4-3.4
			c2.2-9.1,3.2-17.1,6.9-25.8c2.6-6.1,5.5-12,9.8-17.1c1.7-2,3.8-3.7,6.2-4.9c-1.6-0.2-6.4-0.3-8.1-0.2c-10.9,0.6-7.3,0.7-15.7,0.9
			c-3.7,0.1-12.5,0.9-19.9,1.1C26.6,3.7,4.3,3.5,2.8,8.8c-0.1,0.6-0.1,1.2-0.2,1.7c0,8.4,0,22.4,0,30.8c0.1,2,0.2,4,0.3,6
			c0.5,5.5,0.4,10.5,0.9,15.9c0,1.1,0.3,4.1,0.6,6.3c33.2,0,16.2-2,49.4-2.1c1.2-0.4,3.6-0.8,4.9-1C61.3,65.8,65.1,66.8,67.8,66.9z"
			/>
		<polygon class="st2" points="39.9,49 39.9,49 39.9,49 		"/>
		<path class="st3" d="M98,63.7c-2.9,0-6,0.9-9.4,0.8c-5.4,0.5-22.3,1-27.7,1.2c5,1.7,18.1,4.7,21.5,9.8c2.3,3.5,3.6,8.2,3.4,12.5
			c0,0.3,1.4,1.3,1.6,1.6c1.9,1.8,2.9,2.9,4.7,4.8c0.9,0.9,0.4,1.4,0.5,2.5c1.9,0,7.3,0,9.1,0c1.4,0,2.9,0.2,4.3,0.3
			c0.7,0,1.3,0,2,0c0.1,0,0.1,0,0.2,0c2.1-0.2,3.3,0.1,5.4-0.1c0,0.2,0.9,0,0.9,0.2c0.3,0,3.6,0,3.8,0c0.9-1,1.6-0.7,2.5-1.8
			c5.2-6.4,9.3-13.6,12.6-21.2c0.6-1.3,0.4-3.7,0.7-5.1c0.1-0.5-0.3-2.8-0.3-3.3c-0.5,0.1-3.6-0.3-4,0c-1.8,1.3-4.3,2.8-6.1,4.2
			c-3.6,2.7-6.3,3.8-9.9,6.4c-1.8,1.3-2.2,2.9-4.4,3.3c-2.8,0.5-3.2,0.4-2.6-2.5c1-4.7,3.3-8.8,5.7-12.8c0.2-0.3,0.4-0.6,0.5-0.9
			C108.9,63.2,102,63.4,98,63.7z"/>
		<path class="st3" d="M84,91.3c-0.4-0.2-0.7-0.4-0.9-0.6c-6.1-3-12.5-4.1-19.1-3.2c-2.4,0.3-4.6,1.2-6.3,3.1
			c-1.6,1.8-1.9,3.7-0.4,5.4c1,1.1,2.2,2,3.6,2.7c5.2,0,10.4,0,15.6,0C79.7,97.4,82.3,95.1,84,91.3z"/>
		<path class="st3" d="M56.3,96.8c-0.3-0.9,0.2-1.7,0-2.7c-0.6-3.7-0.1-8.9,3.6-8.6c8.9,0.8,5.8-2.3,8.4-1.8
			c4.5,0.7,6.8,0.6,12.1,2.5c0.2,0.1,0.5-5.2,0.9-5.3c-0.8-1.2-1.4-2.4-2.2-3.4c-2.9-3.7-6.8-5.9-11.3-6.6
			c-9.3-1.4-17.6,0.4-23.8,8.1c-2.4,3-3.7,6.5-4.4,10.3c-0.5,2.7-0.5,5.3-0.1,7.8c0.2,0,0.4,0,0.5,0C44,96.9,52.3,96.8,56.3,96.8z"
			/>
		<path class="st3" d="M39,78.4c3.1-4.6,10-9.1,15.7-11.5c0.6-0.2,2.8-0.9,2.2-0.8c-29,0.3-20.5,2.9-51.9,2.9
			c-0.3,0-0.6,0.2-0.6,0.6c-0.2,7.5-0.6,15-0.5,22.4c0,4,0.2,8-0.1,9.3c10.8-2.4,25.1-3.9,30.5-4.1c0.3,0,0.6-0.3,0.6-0.6
			C34.3,89.7,35,84.3,39,78.4z"/>
		<path class="st4" d="M34.9,97.2C34.9,96.7,35,97.6,34.9,97.2c-10.8-0.2-26.9,1.7-30.5,2c-0.3,0-0.5,0.3-0.5,0.6
			c-0.2,4-0.1,8.4-0.3,12.2c0,2.6,0,5.2,0.1,7.8c0.1,2.2,1.3,6,1.9,6.7c1,1,1.9,2.3,4.4,2.1c0,0,0.9,0,0.9,0
			c12.5-0.1,69-1.9,69.5-1.9c-8.1-1.2-26.6-3.9-33.3-9C40.2,112.3,35.9,105.7,34.9,97.2z"/>
		<path class="st4" d="M77.9,98.5c0.4-0.7,0.5-1.8,1.2-2.1c-3.3,0-17.1,0.4-20.4,0.4c0.2,0.1,4.1,0.7,4.2,0.9
			C65.2,101.4,75.5,102.2,77.9,98.5z"/>
		<path class="st4" d="M108,96.9c-0.7,0-1.3,0-2,0c-1.4-0.1-2.9-0.3-4.3-0.3c-1.9,0-5.9,0-7.8,0c0.1,1.2-0.3,0.3-1.3,1.2
			c-2.1,1.8-1.3,1.9-3.2-0.2c-0.7-0.7-3.4-2.3-4.1-3.1c-1.3,2.1-4.2,4.8-6.2,6.2c-3,2.2-5.3,2.7-8.9,3.1c-3.4,0.4-4.7,0.2-7.8-1.1
			c-3.9-1.7-5.3-2.2-6.7-6.1c-3.6,0-9.9-0.4-13.4,0c-3.6,0.4-7.8,1.4-3.8,1c0.6,4,4,10.9,6.7,14.3c4.2,5.4,10.2,8.3,16.7,9.7
			c4.4,1,11.1-1.1,15.6-1.4c7.1-0.5,16.9-3.7,23.2-7.2c7.1-3.9,12.3-10.1,17.7-16.1C118.3,97,111.5,96.7,108,96.9z"/>
		<path class="st4" d="M113.5,96.8c0,0.2,0.9,0,0.9,0.2c0.3,0,0.5,0,0.8,0c0,0,0,0,0,0c-0.3,0-0.5,0-0.8,0
			C114.4,96.8,113.5,97,113.5,96.8z"/>
		<path class="st4" d="M108,96.9c-0.7,0-1.3,0-2,0c-1.4-0.1-2.9-0.3-4.3-0.3c1.4,0,2.9,0.2,4.3,0.3C106.6,96.9,107.3,96.9,108,96.9z
			"/>
		<g>
			<path class="st5" d="M74.8,126.8c0,0-15.9,0.6-30.2-9.2c-6.7-4.6-10.2-11.7-11.2-19.9c0-0.3-0.1-0.5-0.1-0.8l0-0.5
				c-0.7-7.5,0.8-13.7,4.4-19c3.3-4.9,8-8.3,13.9-10.2c1.3-0.4,2.4-0.7,3.5-0.9c2.4-0.5,4.8-0.8,7.1-0.8l0.6,0
				c3.3,0.1,6.4,0.6,9.1,1.5c4.9,1.7,8.9,4.8,11.8,9.3c2.3,3.5,3.3,7,3.1,10.7c0,0.9,0.5,1.8,1,2.3c0.7,0.7,1.5,1.4,2.2,2
				c1.2,1,2.4,2.1,3.5,3.2c0.6,0.6,0.9,1.3,0.9,2c0,0.8-0.3,1.6-0.9,2.1c-0.6,0.6-1.4,0.9-2.1,0.9c-0.9,0-1.7-0.4-2.4-1.2
				c-0.5-0.5-0.9-1-1.4-1.5L87,96.2c-0.3-0.3-0.7-0.5-1.2-0.5c-0.1,0-0.1,0-0.2,0c-0.5,0-0.9,0.3-1.2,0.7c-1.2,2-2.7,3.6-4.4,4.9
				c-2.5,1.8-5.5,2.9-9.4,3.3c-0.7,0.1-1.4,0.1-2.1,0.1c-2.4,0-4.7-0.5-6.9-1.4c-3.7-1.6-6.1-3.9-7.2-7.2c-0.3-0.9-0.5-1.6-0.6-2.3
				c-0.4-2.6,0.3-4.9,2.3-7.3c1.7-2,4.1-3.2,7.7-3.9c1.6-0.3,3.2-0.4,4.8-0.4c3,0,6.7,0.2,9,2.2c1.2,1.1,4.2,0.3,2.9-3
				c-2.1-5-8.6-9-13.2-9.6c-1.8-0.3-3.5-0.4-5.1-0.4c-7.3,0-13.2,2.7-17.6,8.1c-2.1,2.6-3.5,5.9-4.3,9.9c-0.4,2.5-0.5,5-0.1,7.5
				c0.6,4.1,2.5,8,5.4,11.8c4,5.1,9.7,8.4,17.4,10.1c3.3,0.7,6.7,1.1,10.2,1.1c1.2,0,2.4,0,3.5-0.1c7.1-0.5,14.1-2.6,20.6-6.2
				c6.9-3.8,13.1-8.9,19-15.5c0.9-1,1.8-2.1,2.7-3.2c5.7-7,10-14,13.1-21.4c0.6-1.4,1.1-2.9,1.4-4.2c0.2-0.6,0.7-2.4-0.7-3.2
				c-1.3-0.9-2.7,0-3.2,0.4c-1,0.8-2,1.6-3.1,2.3c-0.8,0.6-1.6,1.2-2.3,1.8l-2.1,1.6c-2.8,2.1-5.7,4.3-8.6,6.4
				c-1.4,1-3.2,1.7-5.6,2.1c-0.1,0-0.3,0-0.4,0c-0.7,0-1.4-0.3-1.9-1c-0.6-0.7-0.8-1.6-0.6-2.5c0.9-4.6,3.2-8.6,5.5-12.3l0.5-0.8
				c2-3.3,4.1-6.5,6.1-9.8c1.5-2.4,3-4.7,4.4-7.1c0.9-1.4,1.6-2.8,2.3-4.2c0.4-0.8,2-3.5-0.1-5.2s-5.1,1.3-6,2.2
				c-2.5,2.8-5,5.7-7.5,8.6l-2.6,3c-3.3,3.8-6.7,7.8-10.8,10.8c-1.8,1.3-3.3,2.2-5,2.2l-0.2,0c-1,0-1.7-0.3-2.1-1
				c-0.3-0.4-0.4-1-0.5-1.6c-0.2-2.5,0.3-5.1,1.5-8.2c1.8-4.8,3.5-9.1,5.4-13.4c1.4-3.3,2.9-6.5,4.3-9.7c1.4-3.2,2.8-6.3,4.2-9.5
				c0.7-1.5,1-3.2,1.2-4.8c0.2-1.4-0.2-2.2-0.6-2.6c-0.5-0.6-1.2-0.9-2-0.9c-0.6,0-1.3,0.2-2,0.6c-1.5,0.9-2.9,2.3-3.9,3.8
				c-2.2,3.5-4.4,7.2-6.7,11.3c-1,1.9-2,3.8-3,5.7c-2.7,5-5.4,10.2-8.7,14.9c-1.3,1.9-5.8,6.8-7.6,6.9c-0.9,0-1.3-0.8-1.6-1.4
				c-0.6-1.6-0.7-3.4-0.5-5.6c0.4-4.3,0.7-7.8,1.3-11.4c0.6-3.3,1.2-6.7,1.9-9.9c0.4-1.9,0.8-3.9,1.1-5.8c0.6-3,1-6,1.4-8.3
				c0.1-0.9,1-4-1.2-5.1s-4.3,2.1-4.8,2.8c-2.6,3.5-4.2,7.4-5.8,11.3c-2.5,6.2-4.6,13-6.6,21.4c-0.8,3.2-1.3,6.3-1.7,9.3
				c-0.3,1.9-1.8,3.3-3.7,3.3c-1.8,0-3.4-1.4-3.6-3c-0.1-0.9,0.1-2,0.4-2.9c1.8-7.5,4.3-17.3,8.3-26.6c2.3-5.3,5.2-11.5,9.6-16.7
				c1.8-2.2,3.6-3.6,5.5-4.6l0.4-0.2c0.2-0.1,0.3-0.2,0.5-0.3c1-0.4,1.9-0.6,2.8-0.6c0.4,0,0.9,0.1,1.3,0.2c0.3,0.1,0.5,0.2,0.8,0.4
				c0.4,0.3,0.8,0.6,1.1,1.1c0.8,1.2,1.2,2.6,1.4,4.5c0.5,5-0.5,9.9-1.9,16.5c-0.6,3.1-3.9,15.7-1.8,16.5c3,1.2,10.5-16.6,12.6-20.3
				c2.9-4.9,5.8-8.5,9.1-11.2c1.9-1.5,3.5-2.4,5.1-2.7c0.7-0.1,1.4-0.2,2.1-0.2c1.4,0,2.7,0.3,3.8,1c1.8,1.1,2.6,2.7,2.8,5.4
				c0.3,5.6-1.5,10.9-3.2,15.4c-2.1,5.7-12,21.2-9.3,23c2.5,1.6,10.8-10.2,13.3-12.8c2.7-2.8,5.4-4.9,8.3-6.2
				c1.6-0.7,2.9-1.1,4.2-1.1c0.9,0,1.7,0.2,2.5,0.5c1.9,0.8,2.9,2.3,3,4.5c0.2,4.3-1.4,8.2-3.4,12.3c-2.5,5.4-5.8,10.5-8.6,14.9
				c0,0-4.5,6.4-3.5,7.5c1,1.1,6.9-4.3,7.8-5.2c2.1-1.9,4.5-3.9,7.2-5.5c1.4-0.8,3-1.4,4.5-1.8c0.3-0.1,0.6-0.1,0.9-0.1l0.2,0
				c1.9,0,3.4,1.4,3.7,3.4c0.4,2.3,0.3,4.9-0.4,7.8c-1.1,4.7-2.7,9.2-4.8,13.9c-1.8,3.9-6.9,12.2-9,14.9c-2,2.6-4.2,5.3-6.6,7.8
				c-7.6,8.2-16.4,14.2-26,17.6c-0.7,0.2-1.3,0.5-2,0.7c-3.7,1.2-6.9,1.9-10,2.1c-1,0.1-2,0.2-3,0.3L74.8,126.8z M69,87.9
				c-1,0-2,0.1-3,0.2c-2.1,0.3-3.7,1.1-4.9,2.5c-1.6,1.8-1.7,3.8-0.3,5.5c0.7,0.8,1.6,1.5,2.7,2.1c0.3,0.2,0.5,0.3,0.6,0.3
				c1.3,0.6,2.7,0.8,4.3,0.8c1.1,0,2.2-0.1,3.6-0.4c0.9-0.2,1.8-0.4,2.6-0.7c2.6-1,4.5-2.9,5.7-5.5c0.3-0.7,0.1-1.6-0.6-2l-0.2-0.1
				c-0.2-0.1-0.3-0.2-0.5-0.3C75.8,88.7,72.5,87.9,69,87.9z"/>
		</g>
	</g>
	<g>
		<g>
			<path class="st6" d="M171.3,57.2c-0.9,6.5-1.2,13.3-0.8,19.6c0.2,2.9,0.9,13.9,2.8,16.2c2,2.4,4.9-0.7,4.1-8.6
				c-0.1-1.6,1-3.3,2.3-4.5c1.3-1.3,3.1-2,4.8-1.9c1-0.1,1.7,0.2,2.7,0.8c0.7,0.3,1.4,0.7,2.1,1.6c0.8,0.4,1,1.3,1.2,2
				c0.3,1,0.4,1.8,0.3,2.7c0.1,1.2,0,2.2,0,3.1c-0.3,2.7-0.7,5.2-1.4,7.7c-0.8,2.4-1.7,4.7-3.1,6.7c-0.8,1-1.6,2.1-2.5,3.1
				c-0.4,0.3-0.8,0.5-1.2,0.7c-0.5,0.8-1.4,1.2-2.2,1.8c-3.1,1.2-6.6,1.7-9.7,0.4c-1.3-0.4-2.6-1-3.7-1.9c-1.2-0.8-2.2-1.9-3.2-3
				c-0.9-1-1.6-2.2-2.2-3.6c-0.7-1.2-1.2-2.8-1.5-4.4c-1.3-3.6-2.1-7.9-2.4-11.8c-1.3-9-1.3-17.9-0.1-26.6c0.1-2.1,0.4-4.1,1-6.3
				c0.2-2.5,0.8-5,1.5-7.4c0.5-1.5,1.1-2.9,1.9-4.4c0.4-0.6,1-1.6,1.5-2.2c1-0.9,2-2.2,2.9-2.9c1.1-1,2.3-2,3.5-2.4
				c1.2-0.4,2.5-1,3.8-1.1c0.9-0.1,2-0.2,3.1-0.1c0.8,0.1,1.6,0.2,2.6,0.4c1.4,0.2,2.5,0.9,3.7,1.6c1,0.5,1.6,1.1,2.3,1.7
				c0.9,0.9,1.6,1.5,2.4,2.4c0.8,0.9,1.6,2.1,2.3,3.3c1,1.3,1.9,3,2.4,4.5c0.4,1,0.8,2.1,0.7,3.3c-0.1,0.5-0.2,1.2-0.4,1.9
				c-0.4,1.6-1.7,3-3.3,3.8c-0.7,0.4-1.6,0.6-2.5,0.6c-0.9,0.2-1.9,0-2.6-0.3c-0.9-0.1-1.7-0.6-2.2-1.2c-0.9-0.5-1.4-1.1-1.7-2
				c-3.5-7.9-7.4-7.4-8.4,1.8C171.8,53.9,171.6,55.5,171.3,57.2z"/>
			<path class="st6" d="M234,75.5c0.1,4.4,0.3,8.8,0.2,13.4c0,1-0.1,2.2-0.2,3.2c-0.2,1.6-0.4,3-0.9,4.5c-0.3,1.5-1,2.8-1.6,4.1
				c-0.5,1.2-1.5,2.4-2.4,3.4c-0.5,0.6-1.2,1.1-1.9,1.8c-1.1,0.9-2.2,1.7-3.4,2.3c-1.3,0.5-2.6,1-4,1.2c-0.9,0.2-2,0.3-2.9,0.3
				c-0.9,0-2-0.1-2.8-0.3c-1.5-0.3-2.7-0.7-3.9-1.3c-1.3-0.5-2.4-1.2-3.5-2.2c-0.8-0.6-1.3-1.1-2-1.8c-1-1-1.9-2.2-2.5-3.3
				c-0.8-1.2-1.3-2.5-1.7-3.8c-0.5-1-0.8-2-1.1-2.9c-0.7-2.5-0.8-5.1-0.9-7.7c-0.3-4.6-0.2-8.8-0.2-13.4c0-9.2,0.2-25.9,0.2-35
				c0-1.7,0.7-3.2,1.9-4.6c1.2-1.1,3.1-1.7,4.7-1.8c0.8,0,1.6,0.2,2.5,0.6c0.9,0.2,1.4,0.6,2.1,1.1c1.1,1.2,1.9,3,2,4.6
				c0,3.2,0,6.7,0,9.8c0.1,6.1-0.2,19.5-0.2,25.3c0,3,0,5.9,0,8.8c0,2.4,0,4.9,0.4,7.1c0.5,9.8,9.5,10.6,9.5-0.4c0-2.2,0-4.2,0-6.3
				c-0.1-6.4-0.7-12.6-1.1-19c-0.5-6.2-0.8-19.8-1.3-26.2c-0.2-1.6,0.8-3.2,1.9-4.4c1.3-1.1,2.9-1.8,4.7-1.8c0.9,0,1.6,0.1,2.5,0.5
				c0.7,0.2,1.5,0.7,2.1,1.2c0.7,0.6,1.1,1.2,1.4,2.1c0.3,0.6,0.5,1.6,0.4,2.3c0.1,1.2,0.2,2.3,0.4,3.5
				C233.1,49.7,233.6,66.3,234,75.5z"/>
			<path class="st6" d="M263.4,79.4c-0.5,0.3-1.1,0.6-1.5,0.8c4.5,4.9,11,13.2,14.8,18.4c0.8,0.9,1.3,1.9,1.4,2.9
				c0.1,0.6,0,1.1,0.1,1.8c-0.2,1.6-1.2,3-2.5,4.1c-0.7,0.5-1.4,0.8-2.1,1c-0.9,0.2-1.9,0.4-2.7,0.3c-0.9-0.1-1.6-0.5-2.3-0.8
				c-1-0.3-1.5-0.8-2-1.5c-1.5-1.9-2.7-3.6-4.1-5.4c-2.2-2.9-6.1-8.1-8.7-10.8c0.1,3,0.1,9.6,0.2,12.5c0.1,1.8-0.8,3.3-1.9,4.6
				c-2.5,2.4-6.6,2.2-9.4,0c-1.1-1.1-1.7-2.8-1.9-4.6c-0.2-4.7-0.3-13-0.3-17.7c-0.2-8.3-0.4-16.6-0.4-24.9
				c-0.1-8.3-0.2-16.8-0.2-25.1c0-1.7,0.7-3.1,1.9-4.4c1.2-1.2,3.1-1.8,4.7-1.9c0.7,0,1.3,0.1,2,0.3c2.2-0.3,4.5-0.3,6.8-0.1
				c1.6,0.1,3.3,0.3,5,0.8c1.5,0.3,3.1,1,4.5,1.7c1.6,0.7,2.8,1.7,4.2,2.7c0.8,0.6,1.6,1.3,2.4,2.4c1,1,2.1,2.4,2.8,3.7
				c0.9,1.5,1.4,3,2,4.6c0.2,1,0.5,2.2,0.8,3.1c0.2,1.7,0.4,3.3,0.4,4.9c0,1.2-0.1,2.4-0.1,3.5c-0.2,1.7-0.5,3.4-1,5.2
				c-0.1,1-0.7,2.2-1.1,3.4c-0.7,1.5-1.2,3.1-2.2,4.6c-0.9,1.5-2,2.8-3.1,4c-0.8,0.9-1.6,1.8-2.6,2.6
				C266.3,77.5,264.7,78.4,263.4,79.4z M260.3,43.6c-0.8-0.3-1.4-0.7-2.2-1.1c-1.1-0.4-2.3-0.7-3.6-0.8c-0.4,0-1,0-1.4,0
				c0,2.6,0,5.1,0.1,7.8c0,7,0.1,14,0.2,20.8c0.3-0.1,0.7-0.1,1.1-0.2c1-0.4,2-1,3.1-1.9c1.1-0.7,2-1.7,2.8-2.7
				c1-1.1,1.6-2.4,2.3-3.6c0.7-1.8,1.2-3.6,1.5-5.4c0.2-1.8,0.2-3.4,0.1-5.3c-0.3-1.2-0.7-2.4-1-3.7c-0.5-0.7-1-1.7-1.5-2.2
				C261.4,44.6,260.8,44.2,260.3,43.6z"/>
			<path class="st6" d="M295.9,73.8c0.2,7.9,0.4,21,0.5,29.1c0,1.7-0.8,3.1-2,4.2c-1.1,1.3-2.8,1.8-4.6,1.9c-0.9,0-1.7-0.2-2.5-0.5
				c-0.8-0.2-1.4-0.7-2.1-1.3c-1.2-1.1-2-2.6-2-4.2c-0.1-4.7-0.2-14.2-0.2-18.6c-0.2-7.9-0.4-15.9-0.5-23.8
				c-0.2-8-0.4-15.7-0.4-23.8c-0.1-1.6,0.5-3,1.7-4.4c1.2-1,3.1-1.6,4.7-1.7c0.8-0.1,1.7,0.1,2.5,0.4c0.9,0.3,1.5,0.7,2,1.2
				c1.3,1.2,2,2.8,2,4.4c0.2,4.6,0.2,9,0.3,13.5C295.6,58,295.8,65.9,295.9,73.8z"/>
			<path class="st6" d="M340.3,64.7c0.3,5.8,0.2,11.4-0.4,17c-0.3,3.3-0.8,6.4-1.3,9.9c-0.7,4.6-2.2,9.2-5.7,12.8
				c-0.8,0.8-1.7,1.3-2.7,2c-0.3,0.4-1,0.6-1.3,0.9c-0.9,0.4-2,0.9-2.9,1.2c-1.1,0.2-2.1,0.4-3.3,0.4c-1.1,0-2.2-0.2-3.4-0.4
				c-0.9-0.1-2-0.7-2.8-1c-1.4-0.8-2.6-1.9-3.8-2.8c-1.4-1-2.4-2.5-3.4-3.6c-0.5-1.1-1.2-2-1.5-2.9c-0.9-1.9-1.5-3.4-2-5.4
				c-1-2.5-1.5-4.9-1.9-7.5c-0.5-3.3-0.9-6.8-1.1-10c-0.2-5.5-0.2-11.3,0.2-16.8c3.2-34.5,31.3-38.7,36.5-2
				C340,59.2,340.1,62.1,340.3,64.7z M325.5,53.8c-0.7-11.2-7.2-11.7-8.1,0.6c-0.7,9.1-1.3,17.8-0.1,27.4c1.3,9,6,19.5,8.2,4.2
				c0.4-2.2,0.5-4.2,0.7-6.3C326.8,71.1,326.5,62.3,325.5,53.8z"/>
			<path class="st6" d="M376.8,86c0.2,2.8,0,5.5-0.5,8.4c-0.1,1-0.4,2.1-0.8,3.1c-0.7,1.6-1.3,2.9-2.1,4.1c-1.1,1.2-1.7,2.5-2.9,3.3
				c-0.9,0.6-1.6,1.3-2.4,1.9c-1,0.6-2,0.8-2.8,1.1c-1.2,0.7-2.8,0.7-4.4,0.8c-1.1,0.1-2.1-0.1-3.1-0.1c-0.4-0.1-0.9-0.2-1.2-0.4
				c-1.3-0.5-2.6-1-3.8-2c-1.2-0.7-2.3-1.7-3.2-2.8c-1-1-1.9-2.2-2.5-3.6c-0.7-1.3-1.2-2.7-1.7-4.1c-0.4-1.7-0.1-3.6,0.7-5.1
				c0.9-1.7,2.4-2.5,3.9-3.1c1-0.2,1.6-0.3,2.6-0.2c0.9,0.1,1.6,0.3,2.4,0.9c1.4,0.8,2.5,2.3,3.1,3.9c0,3.2,4.8,4.8,5.7-1.6
				c0.3-1.8,0.2-3.6-0.1-5.6c-0.9-5-2.5-9.7-6.1-14.6c-2.3-3.1-4.9-5.9-7-9.2c-1.1-1.8-2-3.7-2.5-5.7c-0.9-2-1.1-4.1-1.3-6.2
				c0-1.3,0.2-2.7,0.4-4c0-0.7,0.2-1.3,0.4-2.1c0.4-1.1,0.9-2.3,1.5-3.4c0.5-1,1.3-1.9,2.1-2.8c0.3-0.5,0.9-1,1.3-1.5
				c0.9-0.7,1.7-1.5,2.8-2.1c1-0.7,2.2-1,3.3-1.5c1-0.5,1.9-0.6,2.9-0.6c1-0.2,2-0.3,2.9-0.3c1.3,0.1,2.5,0.3,3.6,0.4
				c1.2,0.5,2.4,0.9,3.7,1.5c0.5,0.4,1.2,0.6,1.6,1.1c1.1,0.5,1.9,1.3,2.4,2.4c0.2,0.4,0.4,1,0.7,1.6c0.5,1.7,0.2,3.5-0.7,5.1
				c-0.4,0.9-1,1.5-1.6,2c-0.7,0.5-1.4,0.9-2.3,1.2c-1.3,0.5-3.7,0.3-4.9-0.7c-5-2.2-8.9,0.5-6.4,6.5c0.9,1.7,2,3.2,2.9,4.7
				c1.7,2.2,3.6,4.5,5.2,6.6c1.4,2.2,2.9,4.2,3.9,6.6c1.1,2.5,2.2,5.1,2.8,7.7C376.2,80.4,376.7,83.2,376.8,86z"/>
			<path class="st6" d="M415.6,34.2c1,1.5,1,3.2,0.7,4.8c-0.3,0.8-0.5,1.6-1.2,2.1c-0.4,0.6-1.1,1.2-1.7,1.7
				c-0.9,0.4-1.6,0.7-2.5,0.7c-0.9,0.2-1.7,0.2-2.5-0.1c-2.4-0.6-4.7-1.1-7.1-1.6c-5.8-0.8-6.2-2.6-6.2,3.6c-0.1,2-0.1,3.9-0.2,5.9
				c-0.1,4-0.2,8.1-0.1,12.1c2.3,0,4.5,0,7,0.2c1.1,0,2.2,0.3,3.2,0.8c0.4,0.4,1,0.7,1.3,0.9c1.3,1.1,1.7,2.8,2,4.5
				c0,0.8-0.2,1.7-0.5,2.4c-0.3,0.8-0.8,1.6-1.4,2.1c-0.4,0.5-1.2,1-2.1,1.2c-0.8,0.3-1.6,0.5-2.4,0.5c-2.3-0.1-4.5-0.2-6.6-0.3
				c0.1,2.7,0.3,7.7,0.5,10.4c0.2,3.1,0.4,6.3,0.9,9.4c0.4,2.7,5.3,1.3,7.2,0.8c1.6-0.5,3.5-0.2,4.9,0.4c1.5,0.9,2.5,2.4,3.2,3.8
				c0.1,0.9,0.2,1.7,0,2.5c0,0.8-0.2,1.6-0.8,2.3c-1,1.5-2.3,2.4-3.9,2.9c-0.7,0.2-1.2,0.3-1.9,0.5c-1.9,0.4-3.7,0.6-5.6,0.9
				c-1.9,0.2-3.7,0-5.6-0.4c-1.1-0.2-2.1-0.6-3.2-1c-1-0.5-1.9-1.1-2.8-1.9c-0.8-0.7-1.4-1.6-2.1-2.4c-0.2-0.4-0.5-0.7-0.7-1
				c-0.4-0.8-0.8-1.5-1.1-2.4c-0.2-0.7-0.3-1.5-0.4-2.2c-0.1-1.2-0.4-2.6-0.7-3.9c-0.1-1.8-0.2-3.5-0.4-5.4c-0.3-3.5-0.5-9.3-0.7-13
				c-0.4-7.1-0.5-14.3-0.4-21.6c0.1-3.6,0.2-7.3,0.4-10.8c0.1-2.2,0.2-4,0.7-6.1c0-0.7,0.3-1.3,0.4-1.9c0.4-0.7,0.7-1.7,1.1-2.3
				c0.7-0.7,1.1-1.3,1.6-1.9c0.1-0.1,0.2-0.3,0.3-0.4c0.7-0.3,1.1-0.8,1.7-1.1c0.8-0.5,1.5-0.8,2.4-1c1.2-0.4,2.2-0.5,3.8-0.5
				c0.9-0.1,1.6,0,2.4,0.1c1.4,0,2.8,0.3,4.4,0.5c3.6,0.4,7.2,1.1,10.8,2.1C413.4,31.7,414.8,32.7,415.6,34.2z"/>
			<path class="st6" d="M459.5,102.7c0.1,1.6-0.9,3.2-2,4.4c-1.2,1.5-3.1,1.9-4.7,2.1c-1,0-1.7-0.3-2.5-0.5
				c-0.8-0.4-1.6-0.8-2.2-1.6c-0.7-0.5-1.1-1.1-1.3-2c-0.3-0.8-0.5-1.6-0.5-2.4c-0.2-4.2-0.4-7.1-0.8-11.4c0-1.2,0-2.5-0.1-3.9
				c-4,0-8.2-0.1-12.1-0.3c-0.2,5.3-0.2,10.6-0.2,15.7c0,1.8-0.8,3.4-2,4.7c-1.2,1.1-2.9,1.8-4.7,1.9c-1.6,0-3.4-0.9-4.7-1.9
				c-1.2-1.2-2-2.9-1.9-4.7c0-1.1,0-2.3,0-3.5c0.1-9.8,0.2-19.9,1-29.6c0.5-5.5,1.2-11,2.1-16.3c0.8-4.9,1.7-10,4-14.5
				c0.8-1.5,1.6-2.7,2.6-3.7c0.9-1.2,2.2-2.1,3.5-2.9c1.1-0.8,2.6-1.5,4-1.9c0.3-0.1,0.9-0.3,1.4-0.4c0.9-0.1,1.7-0.2,2.8-0.2
				c1.1,0.1,2.1,0.1,3,0.4c1.1,0.2,2,0.6,2.7,1.1c0.9,0.3,1.7,1,2.5,1.6c0.4,0.3,0.8,0.6,1.1,0.9c0.9,1.3,1.9,2.5,2.5,3.9
				c0.7,1.3,1.4,2.8,1.7,4.4c0.9,2.9,1.2,5.7,1.4,8.7c0.3,2.3,0.3,4.8,0.4,7.1c0.4,5.2,0.7,10.2,0.9,15.2
				C458.4,83.3,459,92.4,459.5,102.7z M444.6,74.5c-0.1-1.6-0.1-3.3-0.2-4.8c-0.2-3.7-0.4-7.4-0.7-11c-0.2-3.2-0.2-6.4-0.7-9.7
				c-0.9-7.1-3.5-8.5-5.7-0.3c-0.3,1.2-0.5,2.7-0.9,3.9c-0.5,2.7-1,5.4-1.3,8.1c-0.5,2.9-0.8,5.8-1.1,8.6c0,1.6-0.2,3.2-0.3,4.9
				C437.5,74.4,441,74.5,444.6,74.5z"/>
			<path class="st7" d="M482.1,107.5c-1.7,1.7-3.8,2.6-6.2,2.6c-2.4,0-4.5-0.9-6.2-2.6c-1.7-1.7-2.6-3.8-2.6-6.2
				c0-2.4,0.8-4.5,2.5-6.2c1.7-1.7,3.8-2.6,6.3-2.6c2.4,0,4.5,0.9,6.2,2.6c1.7,1.7,2.6,3.8,2.6,6.2
				C484.7,103.7,483.8,105.8,482.1,107.5z"/>
			<path class="st6" d="M522.2,100c0.4,0.7,0.4,1.7,0.2,2.4c-0.1,0.8-0.3,1.7-0.8,2.3c-0.4,0.8-1,1.3-1.7,1.9
				c-0.7,0.6-1.3,0.8-2.2,1.1c-3.4,0.6-6.9,1.1-10.2,1.2c-0.7,0-1.4,0-2.1,0c-1.2-0.1-2.4-0.2-3.5-0.6c-0.8-0.2-1.4-0.5-2.1-0.9
				c-0.8-0.2-1.3-0.8-1.9-1.2c-0.8-0.6-1.3-1.5-1.9-2.3c-0.5-0.7-0.9-1.7-1.1-2.5c-0.3-0.4-0.4-0.7-0.4-1.2
				c-0.4-1.2-0.5-2.7-0.5-4.1c0-2.4,0-4.7,0-7c0.1-5.1,0.1-14.6,0.3-19.8c0.2-10.2,0.5-22.1,1-32.3c0-1.1,0.4-2.3,1-3.2
				c0.3-0.3,0.7-0.8,1-1.2c1.1-1.1,2.8-1.8,4.7-1.9c0.8-0.1,1.7,0.2,2.5,0.6c0.7,0.3,1.4,0.7,2.1,1.2c0.5,0.6,1.1,1.2,1.3,2
				c0.3,0.8,0.7,1.7,0.5,2.5c-0.2,4-0.3,8.1-0.4,12.3c-0.3,7.3-0.4,16.4-0.8,23.7c-0.1,3.6,0,11.6-0.1,15.2c0,1.8,0,3.6,0,5.4
				c0,1,0,2,0,3c0.3-0.1,0.7-0.1,1.1-0.1c0.8,0,1.6,0,2.6-0.1c1.1-0.2,2.3-0.4,3.4-0.6c1.7-0.4,3.5-0.2,5,0.6
				C520.7,97,521.7,98.4,522.2,100z"/>
			<path class="st6" d="M558.7,86c0.2,2.8,0,5.5-0.5,8.4c-0.1,1-0.4,2.1-0.8,3.1c-0.7,1.6-1.3,2.9-2.1,4.1c-1.1,1.2-1.7,2.5-2.9,3.3
				c-0.9,0.6-1.6,1.3-2.4,1.9c-1,0.6-2,0.8-2.8,1.1c-1.2,0.7-2.8,0.7-4.4,0.8c-1.1,0.1-2.1-0.1-3.1-0.1c-0.4-0.1-0.9-0.2-1.2-0.4
				c-1.3-0.5-2.6-1-3.8-2c-1.2-0.7-2.3-1.7-3.2-2.8c-1-1-1.9-2.2-2.5-3.6c-0.7-1.3-1.2-2.7-1.7-4.1c-0.4-1.7-0.1-3.6,0.7-5.1
				c0.9-1.7,2.4-2.5,3.9-3.1c1-0.2,1.6-0.3,2.6-0.2c0.9,0.1,1.6,0.3,2.4,0.9c1.4,0.8,2.5,2.3,3.1,3.9c0,3.2,4.8,4.8,5.7-1.6
				c0.3-1.8,0.2-3.6-0.1-5.6c-0.9-5-2.5-9.7-6.1-14.6c-2.3-3.1-4.9-5.9-7-9.2c-1.1-1.8-2-3.7-2.5-5.7c-0.9-2-1.1-4.1-1.3-6.2
				c0-1.3,0.2-2.7,0.4-4c0-0.7,0.2-1.3,0.4-2.1c0.4-1.1,0.9-2.3,1.5-3.4c0.5-1,1.3-1.9,2.1-2.8c0.3-0.5,0.9-1,1.3-1.5
				c0.9-0.7,1.7-1.5,2.8-2.1c1-0.7,2.2-1,3.3-1.5c1-0.5,1.9-0.6,2.9-0.6c1-0.2,2-0.3,2.9-0.3c1.3,0.1,2.5,0.3,3.6,0.4
				c1.2,0.5,2.4,0.9,3.7,1.5c0.5,0.4,1.2,0.6,1.6,1.1c1.1,0.5,1.9,1.3,2.4,2.4c0.2,0.4,0.4,1,0.7,1.6c0.5,1.7,0.2,3.5-0.7,5.1
				c-0.4,0.9-1,1.5-1.6,2c-0.7,0.5-1.4,0.9-2.3,1.2c-1.3,0.5-3.7,0.3-4.9-0.7c-5-2.2-8.9,0.5-6.4,6.5c0.9,1.7,2,3.2,2.9,4.7
				c1.7,2.2,3.6,4.5,5.2,6.6c1.4,2.2,2.9,4.2,3.9,6.6c1.1,2.5,2.2,5.1,2.8,7.7C558,80.4,558.5,83.2,558.7,86z"/>
			<path class="st6" d="M577.8,57.2c-0.9,6.5-1.2,13.3-0.8,19.6c0.2,2.9,0.9,13.9,2.8,16.2c2,2.4,4.9-0.7,4.1-8.6
				c-0.1-1.6,1-3.3,2.3-4.5c1.3-1.3,3.1-2,4.8-1.9c1-0.1,1.7,0.2,2.7,0.8c0.7,0.3,1.4,0.7,2.1,1.6c0.8,0.4,1,1.3,1.2,2
				c0.3,1,0.4,1.8,0.3,2.7c0.1,1.2,0,2.2,0,3.1c-0.3,2.7-0.7,5.2-1.4,7.7c-0.8,2.4-1.7,4.7-3.1,6.7c-0.8,1-1.6,2.1-2.5,3.1
				c-0.4,0.3-0.8,0.5-1.2,0.7c-0.5,0.8-1.4,1.2-2.2,1.8c-3.1,1.2-6.6,1.7-9.7,0.4c-1.3-0.4-2.6-1-3.7-1.9c-1.2-0.8-2.2-1.9-3.2-3
				c-0.9-1-1.6-2.2-2.2-3.6c-0.7-1.2-1.2-2.8-1.5-4.4c-1.3-3.6-2.1-7.9-2.4-11.8c-1.3-9-1.3-17.9-0.1-26.6c0.1-2.1,0.4-4.1,1-6.3
				c0.2-2.5,0.8-5,1.5-7.4c0.5-1.5,1.1-2.9,1.9-4.4c0.4-0.6,1-1.6,1.5-2.2c1-0.9,2-2.2,2.9-2.9c1.1-1,2.3-2,3.5-2.4s2.5-1,3.8-1.1
				c0.9-0.1,2-0.2,3-0.1c0.8,0.1,1.6,0.2,2.6,0.4c1.4,0.2,2.5,0.9,3.7,1.6c1,0.5,1.6,1.1,2.3,1.7c0.9,0.9,1.6,1.5,2.4,2.4
				c0.8,0.9,1.6,2.1,2.3,3.3c1,1.3,1.9,3,2.4,4.5c0.4,1,0.8,2.1,0.7,3.3c-0.1,0.5-0.2,1.2-0.4,1.9c-0.4,1.6-1.7,3-3.3,3.8
				c-0.7,0.4-1.6,0.6-2.5,0.6c-0.9,0.2-1.9,0-2.6-0.3c-0.9-0.1-1.7-0.6-2.2-1.2c-0.9-0.5-1.4-1.1-1.7-2c-3.5-7.9-7.4-7.4-8.4,1.8
				C578.4,53.9,578.2,55.5,577.8,57.2z"/>
		</g>
	</g>
</g>
</svg>
